<?xml version="1.0" encoding="UTF-8" standalone="no"?>
<!DOCTYPE svg PUBLIC "-//W3C//DTD SVG 1.1//EN" "http://www.w3.org/Graphics/SVG/1.1/DTD/svg11.dtd">
<svg width="100%" height="100%" viewBox="0 0 577 353" version="1.1" xmlns="http://www.w3.org/2000/svg" xmlns:xlink="http://www.w3.org/1999/xlink" xml:space="preserve" xmlns:serif="http://www.serif.com/" style="fill-rule:evenodd;clip-rule:evenodd;stroke-linecap:round;stroke-linejoin:round;stroke-miterlimit:1.5;">
    <g transform="matrix(1,0,0,1,-26.7064,-455.166)">
        <g transform="matrix(0.985925,0,0,1,-227.741,175.144)">
            <path d="M839.202,339.245L839.202,590.385C839.202,611.964 821.433,629.483 799.546,629.483L318.149,629.483C296.262,629.483 278.493,611.964 278.493,590.385L278.493,339.245C278.493,317.666 296.262,300.147 318.149,300.147L799.546,300.147C821.433,300.147 839.202,317.666 839.202,339.245Z" style="fill:none;stroke:black;stroke-width:6.29px;"/>
        </g>
        <g transform="matrix(0.985925,0,0,1,-244.741,158.144)">
            <path d="M332.892,646.406C311.005,646.406 278.493,611.964 278.493,590.385L278.493,339.245C278.493,317.666 296.262,300.147 318.149,300.147L799.546,300.147C821.433,300.147 856.27,329.859 856.27,351.438" style="fill:none;stroke:black;stroke-width:6.29px;"/>
        </g>
        <g transform="matrix(0.131373,0,0,0.224304,76.2533,543.88)">
            <path d="M839.202,398.321L839.202,531.308C839.202,585.492 764.093,629.483 671.581,629.483L446.114,629.483C353.601,629.483 278.493,585.492 278.493,531.308L278.493,398.321C278.493,344.137 353.601,300.147 446.114,300.147L671.581,300.147C764.093,300.147 839.202,344.137 839.202,398.321Z" style="fill:none;stroke:black;stroke-width:34px;"/>
        </g>
        <g transform="matrix(0.131373,0,0,0.224304,246.664,543.88)">
            <path d="M839.202,398.321L839.202,531.308C839.202,585.492 764.093,629.483 671.581,629.483L446.114,629.483C353.601,629.483 278.493,585.492 278.493,531.308L278.493,398.321C278.493,344.137 353.601,300.147 446.114,300.147L671.581,300.147C764.093,300.147 839.202,344.137 839.202,398.321Z" style="fill:none;stroke:black;stroke-width:34px;"/>
        </g>
        <g transform="matrix(0.131373,0,0,0.224304,423.998,543.88)">
            <path d="M839.202,398.321L839.202,531.308C839.202,585.492 764.093,629.483 671.581,629.483L446.114,629.483C353.601,629.483 278.493,585.492 278.493,531.308L278.493,398.321C278.493,344.137 353.601,300.147 446.114,300.147L671.581,300.147C764.093,300.147 839.202,344.137 839.202,398.321Z" style="fill:none;stroke:black;stroke-width:34px;"/>
        </g>
        <g transform="matrix(0.485357,0,0,0.485357,55.379,351.2)">
            <path d="M552.158,344.273L580.802,377.494L523.515,377.494L552.158,344.273Z" style="fill:rgb(231,232,233);stroke:black;stroke-width:4.72px;"/>
        </g>
        <g transform="matrix(1,0,0,1.06465,-235.192,142.414)">
            <ellipse cx="384.123" cy="474.788" rx="11.855" ry="11.094" style="fill:none;stroke:black;stroke-width:0.61px;"/>
        </g>
        <g transform="matrix(1,0,0,0.777379,-231.532,278.202)">
            <path d="M380.345,441.873L380.345,456.495" style="fill:none;stroke:black;stroke-width:0.7px;"/>
        </g>
        <g transform="matrix(1,0,0,0.777379,-231.726,318.691)">
            <path d="M380.345,441.873L380.345,456.495" style="fill:none;stroke:black;stroke-width:0.7px;"/>
        </g>
        <g transform="matrix(6.12323e-17,-1,0.777379,4.76008e-17,-180.238,1028.41)">
            <path d="M380.345,441.873L380.345,456.495" style="fill:none;stroke:black;stroke-width:0.7px;"/>
        </g>
        <g transform="matrix(6.12323e-17,-1,0.777379,4.76008e-17,-219.835,1028.41)">
            <path d="M380.345,441.873L380.345,456.495" style="fill:none;stroke:black;stroke-width:0.7px;"/>
        </g>
        <g transform="matrix(0.707107,-0.707107,0.54969,0.54969,-382.295,656.625)">
            <path d="M380.345,441.873L380.345,456.495" style="fill:none;stroke:black;stroke-width:0.7px;"/>
        </g>
        <g transform="matrix(0.707107,-0.707107,0.54969,0.54969,-354.176,684.744)">
            <path d="M380.345,441.873L380.345,456.495" style="fill:none;stroke:black;stroke-width:0.7px;"/>
        </g>
        <g transform="matrix(-0.707107,-0.707107,0.54969,-0.54969,156.261,1177.66)">
            <path d="M380.345,441.873L380.345,456.495" style="fill:none;stroke:black;stroke-width:0.7px;"/>
        </g>
        <g transform="matrix(-0.707107,-0.707107,0.54969,-0.54969,184.612,1149.31)">
            <path d="M380.345,441.873L380.345,456.495" style="fill:none;stroke:black;stroke-width:0.7px;"/>
        </g>
        <g transform="matrix(1,0,0,1.06465,-63.685,142.414)">
            <ellipse cx="384.123" cy="474.788" rx="11.855" ry="11.094" style="fill:none;stroke:black;stroke-width:0.61px;"/>
        </g>
        <g transform="matrix(1,0,0,0.777379,-60.025,278.202)">
            <path d="M380.345,441.873L380.345,456.495" style="fill:none;stroke:black;stroke-width:0.7px;"/>
        </g>
        <g transform="matrix(1,0,0,0.777379,-60.2191,318.691)">
            <path d="M380.345,441.873L380.345,456.495" style="fill:none;stroke:black;stroke-width:0.7px;"/>
        </g>
        <g transform="matrix(6.12323e-17,-1,0.777379,4.76008e-17,-8.73075,1028.41)">
            <path d="M380.345,441.873L380.345,456.495" style="fill:none;stroke:black;stroke-width:0.7px;"/>
        </g>
        <g transform="matrix(6.12323e-17,-1,0.777379,4.76008e-17,-48.3275,1028.41)">
            <path d="M380.345,441.873L380.345,456.495" style="fill:none;stroke:black;stroke-width:0.7px;"/>
        </g>
        <g transform="matrix(0.707107,-0.707107,0.54969,0.54969,-210.787,656.625)">
            <path d="M380.345,441.873L380.345,456.495" style="fill:none;stroke:black;stroke-width:0.7px;"/>
        </g>
        <g transform="matrix(0.707107,-0.707107,0.54969,0.54969,-182.668,684.744)">
            <path d="M380.345,441.873L380.345,456.495" style="fill:none;stroke:black;stroke-width:0.7px;"/>
        </g>
        <g transform="matrix(-0.707107,-0.707107,0.54969,-0.54969,327.769,1177.66)">
            <path d="M380.345,441.873L380.345,456.495" style="fill:none;stroke:black;stroke-width:0.7px;"/>
        </g>
        <g transform="matrix(-0.707107,-0.707107,0.54969,-0.54969,356.119,1149.31)">
            <path d="M380.345,441.873L380.345,456.495" style="fill:none;stroke:black;stroke-width:0.7px;"/>
        </g>
        <g transform="matrix(1,0,0,1.06465,113.78,142.414)">
            <ellipse cx="384.123" cy="474.788" rx="11.855" ry="11.094" style="fill:none;stroke:black;stroke-width:0.61px;"/>
        </g>
        <g transform="matrix(1,0,0,0.777379,117.44,278.202)">
            <path d="M380.345,441.873L380.345,456.495" style="fill:none;stroke:black;stroke-width:0.7px;"/>
        </g>
        <g transform="matrix(1,0,0,0.777379,117.246,318.691)">
            <path d="M380.345,441.873L380.345,456.495" style="fill:none;stroke:black;stroke-width:0.7px;"/>
        </g>
        <g transform="matrix(6.12323e-17,-1,0.777379,4.76008e-17,168.734,1028.41)">
            <path d="M380.345,441.873L380.345,456.495" style="fill:none;stroke:black;stroke-width:0.7px;"/>
        </g>
        <g transform="matrix(6.12323e-17,-1,0.777379,4.76008e-17,129.137,1028.41)">
            <path d="M380.345,441.873L380.345,456.495" style="fill:none;stroke:black;stroke-width:0.7px;"/>
        </g>
        <g transform="matrix(0.707107,-0.707107,0.54969,0.54969,-33.3224,656.625)">
            <path d="M380.345,441.873L380.345,456.495" style="fill:none;stroke:black;stroke-width:0.7px;"/>
        </g>
        <g transform="matrix(0.707107,-0.707107,0.54969,0.54969,-5.2035,684.744)">
            <path d="M380.345,441.873L380.345,456.495" style="fill:none;stroke:black;stroke-width:0.7px;"/>
        </g>
        <g transform="matrix(-0.707107,-0.707107,0.54969,-0.54969,505.234,1177.66)">
            <path d="M380.345,441.873L380.345,456.495" style="fill:none;stroke:black;stroke-width:0.7px;"/>
        </g>
        <g transform="matrix(-0.707107,-0.707107,0.54969,-0.54969,533.584,1149.31)">
            <path d="M380.345,441.873L380.345,456.495" style="fill:none;stroke:black;stroke-width:0.7px;"/>
        </g>
    </g>
</svg>
