<?xml version="1.0" encoding="UTF-8" standalone="no"?>
<!DOCTYPE svg PUBLIC "-//W3C//DTD SVG 1.1//EN" "http://www.w3.org/Graphics/SVG/1.1/DTD/svg11.dtd">
<svg width="100%" height="100%" viewBox="0 0 577 353" version="1.1" xmlns="http://www.w3.org/2000/svg" xmlns:xlink="http://www.w3.org/1999/xlink" xml:space="preserve" xmlns:serif="http://www.serif.com/" style="fill-rule:evenodd;clip-rule:evenodd;stroke-linecap:round;stroke-linejoin:round;stroke-miterlimit:1.5;">
    <g transform="matrix(1,0,0,1,-633.354,-455.166)">
        <g transform="matrix(0.985925,0,0,1,378.906,175.144)">
            <path d="M839.202,339.245L839.202,590.385C839.202,611.964 821.433,629.483 799.546,629.483L318.149,629.483C296.262,629.483 278.493,611.964 278.493,590.385L278.493,339.245C278.493,317.666 296.262,300.147 318.149,300.147L799.546,300.147C821.433,300.147 839.202,317.666 839.202,339.245Z" style="fill:none;stroke:black;stroke-width:6.29px;"/>
        </g>
        <g transform="matrix(0.985925,0,0,1,361.906,158.144)">
            <path d="M332.892,646.406C311.005,646.406 278.493,611.964 278.493,590.385L278.493,339.245C278.493,317.666 296.262,300.147 318.149,300.147L799.546,300.147C821.433,300.147 856.27,329.859 856.27,351.438" style="fill:none;stroke:black;stroke-width:6.29px;"/>
        </g>
        <g transform="matrix(0.131373,0,0,0.224304,983.365,478.637)">
            <path d="M839.202,398.321L839.202,531.308C839.202,585.492 764.093,629.483 671.581,629.483L446.114,629.483C353.601,629.483 278.493,585.492 278.493,531.308L278.493,398.321C278.493,344.137 353.601,300.147 446.114,300.147L671.581,300.147C764.093,300.147 839.202,344.137 839.202,398.321Z" style="fill:none;stroke:black;stroke-width:34px;"/>
        </g>
        <g transform="matrix(0.485357,0,0,0.485357,662.027,351.2)">
            <path d="M552.158,344.273L580.802,377.494L523.515,377.494L552.158,344.273Z" style="fill:rgb(231,232,233);stroke:black;stroke-width:4.72px;"/>
        </g>
        <g transform="matrix(1,0,0,1.06465,673.148,77.1716)">
            <ellipse cx="384.123" cy="474.788" rx="11.855" ry="11.094" style="fill:none;stroke:black;stroke-width:0.61px;"/>
        </g>
        <g transform="matrix(1,0,0,0.777379,676.808,212.96)">
            <path d="M380.345,441.873L380.345,456.495" style="fill:none;stroke:black;stroke-width:0.7px;"/>
        </g>
        <g transform="matrix(1,0,0,0.777379,676.614,253.449)">
            <path d="M380.345,441.873L380.345,456.495" style="fill:none;stroke:black;stroke-width:0.7px;"/>
        </g>
        <g transform="matrix(6.12323e-17,-1,0.777379,4.76008e-17,728.102,963.171)">
            <path d="M380.345,441.873L380.345,456.495" style="fill:none;stroke:black;stroke-width:0.7px;"/>
        </g>
        <g transform="matrix(6.12323e-17,-1,0.777379,4.76008e-17,688.505,963.171)">
            <path d="M380.345,441.873L380.345,456.495" style="fill:none;stroke:black;stroke-width:0.7px;"/>
        </g>
        <g transform="matrix(0.707107,-0.707107,0.54969,0.54969,526.046,591.383)">
            <path d="M380.345,441.873L380.345,456.495" style="fill:none;stroke:black;stroke-width:0.7px;"/>
        </g>
        <g transform="matrix(0.707107,-0.707107,0.54969,0.54969,554.164,619.502)">
            <path d="M380.345,441.873L380.345,456.495" style="fill:none;stroke:black;stroke-width:0.7px;"/>
        </g>
        <g transform="matrix(-0.707107,-0.707107,0.54969,-0.54969,1064.6,1112.42)">
            <path d="M380.345,441.873L380.345,456.495" style="fill:none;stroke:black;stroke-width:0.7px;"/>
        </g>
        <g transform="matrix(-0.707107,-0.707107,0.54969,-0.54969,1092.95,1084.06)">
            <path d="M380.345,441.873L380.345,456.495" style="fill:none;stroke:black;stroke-width:0.7px;"/>
        </g>
        <g transform="matrix(0.131373,0,0,0.224304,983.127,595.053)">
            <path d="M839.202,398.321L839.202,531.308C839.202,585.492 764.093,629.483 671.581,629.483L446.114,629.483C353.601,629.483 278.493,585.492 278.493,531.308L278.493,398.321C278.493,344.137 353.601,300.147 446.114,300.147L671.581,300.147C764.093,300.147 839.202,344.137 839.202,398.321Z" style="fill:none;stroke:black;stroke-width:34px;"/>
        </g>
        <g transform="matrix(1,0,0,1.06465,672.909,193.587)">
            <ellipse cx="384.123" cy="474.788" rx="11.855" ry="11.094" style="fill:none;stroke:black;stroke-width:0.61px;"/>
        </g>
        <g transform="matrix(1,0,0,0.777379,676.569,329.376)">
            <path d="M380.345,441.873L380.345,456.495" style="fill:none;stroke:black;stroke-width:0.7px;"/>
        </g>
        <g transform="matrix(1,0,0,0.777379,676.375,369.865)">
            <path d="M380.345,441.873L380.345,456.495" style="fill:none;stroke:black;stroke-width:0.7px;"/>
        </g>
        <g transform="matrix(6.12323e-17,-1,0.777379,4.76008e-17,727.864,1079.59)">
            <path d="M380.345,441.873L380.345,456.495" style="fill:none;stroke:black;stroke-width:0.7px;"/>
        </g>
        <g transform="matrix(6.12323e-17,-1,0.777379,4.76008e-17,688.267,1079.59)">
            <path d="M380.345,441.873L380.345,456.495" style="fill:none;stroke:black;stroke-width:0.7px;"/>
        </g>
        <g transform="matrix(0.707107,-0.707107,0.54969,0.54969,525.807,707.799)">
            <path d="M380.345,441.873L380.345,456.495" style="fill:none;stroke:black;stroke-width:0.7px;"/>
        </g>
        <g transform="matrix(0.707107,-0.707107,0.54969,0.54969,553.926,735.918)">
            <path d="M380.345,441.873L380.345,456.495" style="fill:none;stroke:black;stroke-width:0.7px;"/>
        </g>
        <g transform="matrix(-0.707107,-0.707107,0.54969,-0.54969,1064.36,1228.83)">
            <path d="M380.345,441.873L380.345,456.495" style="fill:none;stroke:black;stroke-width:0.7px;"/>
        </g>
        <g transform="matrix(-0.707107,-0.707107,0.54969,-0.54969,1092.71,1200.48)">
            <path d="M380.345,441.873L380.345,456.495" style="fill:none;stroke:black;stroke-width:0.7px;"/>
        </g>
        <g transform="matrix(0.131373,0,0,0.224304,729.407,478.637)">
            <path d="M839.202,398.321L839.202,531.308C839.202,585.492 764.093,629.483 671.581,629.483L446.114,629.483C353.601,629.483 278.493,585.492 278.493,531.308L278.493,398.321C278.493,344.137 353.601,300.147 446.114,300.147L671.581,300.147C764.093,300.147 839.202,344.137 839.202,398.321Z" style="fill:none;stroke:black;stroke-width:34px;"/>
        </g>
        <g transform="matrix(1,0,0,1.06465,419.189,77.1716)">
            <ellipse cx="384.123" cy="474.788" rx="11.855" ry="11.094" style="fill:none;stroke:black;stroke-width:0.61px;"/>
        </g>
        <g transform="matrix(1,0,0,0.777379,422.849,212.96)">
            <path d="M380.345,441.873L380.345,456.495" style="fill:none;stroke:black;stroke-width:0.7px;"/>
        </g>
        <g transform="matrix(1,0,0,0.777379,422.655,253.449)">
            <path d="M380.345,441.873L380.345,456.495" style="fill:none;stroke:black;stroke-width:0.7px;"/>
        </g>
        <g transform="matrix(6.12323e-17,-1,0.777379,4.76008e-17,474.143,963.171)">
            <path d="M380.345,441.873L380.345,456.495" style="fill:none;stroke:black;stroke-width:0.7px;"/>
        </g>
        <g transform="matrix(6.12323e-17,-1,0.777379,4.76008e-17,434.547,963.171)">
            <path d="M380.345,441.873L380.345,456.495" style="fill:none;stroke:black;stroke-width:0.7px;"/>
        </g>
        <g transform="matrix(0.707107,-0.707107,0.54969,0.54969,272.087,591.383)">
            <path d="M380.345,441.873L380.345,456.495" style="fill:none;stroke:black;stroke-width:0.7px;"/>
        </g>
        <g transform="matrix(0.707107,-0.707107,0.54969,0.54969,300.206,619.502)">
            <path d="M380.345,441.873L380.345,456.495" style="fill:none;stroke:black;stroke-width:0.7px;"/>
        </g>
        <g transform="matrix(-0.707107,-0.707107,0.54969,-0.54969,810.643,1112.42)">
            <path d="M380.345,441.873L380.345,456.495" style="fill:none;stroke:black;stroke-width:0.7px;"/>
        </g>
        <g transform="matrix(-0.707107,-0.707107,0.54969,-0.54969,838.993,1084.06)">
            <path d="M380.345,441.873L380.345,456.495" style="fill:none;stroke:black;stroke-width:0.7px;"/>
        </g>
        <g transform="matrix(0.131373,0,0,0.224304,729.168,595.053)">
            <path d="M839.202,398.321L839.202,531.308C839.202,585.492 764.093,629.483 671.581,629.483L446.114,629.483C353.601,629.483 278.493,585.492 278.493,531.308L278.493,398.321C278.493,344.137 353.601,300.147 446.114,300.147L671.581,300.147C764.093,300.147 839.202,344.137 839.202,398.321Z" style="fill:none;stroke:black;stroke-width:34px;"/>
        </g>
        <g transform="matrix(1,0,0,1.06465,418.951,193.587)">
            <ellipse cx="384.123" cy="474.788" rx="11.855" ry="11.094" style="fill:none;stroke:black;stroke-width:0.61px;"/>
        </g>
        <g transform="matrix(1,0,0,0.777379,422.611,329.376)">
            <path d="M380.345,441.873L380.345,456.495" style="fill:none;stroke:black;stroke-width:0.7px;"/>
        </g>
        <g transform="matrix(1,0,0,0.777379,422.417,369.865)">
            <path d="M380.345,441.873L380.345,456.495" style="fill:none;stroke:black;stroke-width:0.7px;"/>
        </g>
        <g transform="matrix(6.12323e-17,-1,0.777379,4.76008e-17,473.905,1079.59)">
            <path d="M380.345,441.873L380.345,456.495" style="fill:none;stroke:black;stroke-width:0.7px;"/>
        </g>
        <g transform="matrix(6.12323e-17,-1,0.777379,4.76008e-17,434.308,1079.59)">
            <path d="M380.345,441.873L380.345,456.495" style="fill:none;stroke:black;stroke-width:0.7px;"/>
        </g>
        <g transform="matrix(0.707107,-0.707107,0.54969,0.54969,271.848,707.799)">
            <path d="M380.345,441.873L380.345,456.495" style="fill:none;stroke:black;stroke-width:0.7px;"/>
        </g>
        <g transform="matrix(0.707107,-0.707107,0.54969,0.54969,299.967,735.918)">
            <path d="M380.345,441.873L380.345,456.495" style="fill:none;stroke:black;stroke-width:0.7px;"/>
        </g>
        <g transform="matrix(-0.707107,-0.707107,0.54969,-0.54969,810.404,1228.83)">
            <path d="M380.345,441.873L380.345,456.495" style="fill:none;stroke:black;stroke-width:0.7px;"/>
        </g>
        <g transform="matrix(-0.707107,-0.707107,0.54969,-0.54969,838.755,1200.48)">
            <path d="M380.345,441.873L380.345,456.495" style="fill:none;stroke:black;stroke-width:0.7px;"/>
        </g>
    </g>
</svg>
