<?xml version="1.0" encoding="UTF-8" standalone="no"?>
<!DOCTYPE svg PUBLIC "-//W3C//DTD SVG 1.1//EN" "http://www.w3.org/Graphics/SVG/1.1/DTD/svg11.dtd">
<svg width="100%" height="100%" viewBox="0 0 577 353" version="1.1" xmlns="http://www.w3.org/2000/svg" xmlns:xlink="http://www.w3.org/1999/xlink" xml:space="preserve" xmlns:serif="http://www.serif.com/" style="fill-rule:evenodd;clip-rule:evenodd;stroke-linecap:round;stroke-linejoin:round;stroke-miterlimit:1.5;">
    <g transform="matrix(1,0,0,1,-637.505,-64.6642)">
        <g transform="matrix(0.985925,0,0,1,366.057,-232.357)">
            <path d="M332.892,646.406C311.005,646.406 278.493,611.964 278.493,590.385L278.493,339.245C278.493,317.666 296.262,300.147 318.149,300.147L799.546,300.147C821.433,300.147 856.27,329.859 856.27,351.438" style="fill:none;stroke:black;stroke-width:6.29px;"/>
        </g>
        <g transform="matrix(0.985925,0,0,1,383.094,-215.366)">
            <path d="M839.202,339.245L839.202,590.385C839.202,611.964 821.433,629.483 799.546,629.483L318.149,629.483C296.262,629.483 278.493,611.964 278.493,590.385L278.493,339.245C278.493,317.666 296.262,300.147 318.149,300.147L799.546,300.147C821.433,300.147 839.202,317.666 839.202,339.245Z" style="fill:none;stroke:black;stroke-width:6.29px;"/>
        </g>
        <g transform="matrix(0.131373,0,0,0.224304,860.284,153.37)">
            <path d="M839.202,398.321L839.202,531.308C839.202,585.492 764.093,629.483 671.581,629.483L446.114,629.483C353.601,629.483 278.493,585.492 278.493,531.308L278.493,398.321C278.493,344.137 353.601,300.147 446.114,300.147L671.581,300.147C764.093,300.147 839.202,344.137 839.202,398.321Z" style="fill:none;stroke:black;stroke-width:34px;"/>
        </g>
        <g transform="matrix(0.485357,0,0,0.485357,666.215,-39.3101)">
            <path d="M552.158,344.273L580.802,377.494L523.515,377.494L552.158,344.273Z" style="fill:rgb(231,232,233);stroke:black;stroke-width:4.72px;"/>
        </g>
        <g transform="matrix(1,0,0,1.06465,548.839,-248.096)">
            <ellipse cx="384.123" cy="474.788" rx="11.855" ry="11.094" style="fill:none;stroke:black;stroke-width:0.61px;"/>
        </g>
        <g transform="matrix(1,0,0,0.777379,552.499,-112.308)">
            <path d="M380.345,441.873L380.345,456.495" style="fill:none;stroke:black;stroke-width:0.7px;"/>
        </g>
        <g transform="matrix(1,0,0,0.777379,552.304,-71.8187)">
            <path d="M380.345,441.873L380.345,456.495" style="fill:none;stroke:black;stroke-width:0.7px;"/>
        </g>
        <g transform="matrix(6.12323e-17,-1,0.777379,4.76008e-17,603.793,637.903)">
            <path d="M380.345,441.873L380.345,456.495" style="fill:none;stroke:black;stroke-width:0.7px;"/>
        </g>
        <g transform="matrix(6.12323e-17,-1,0.777379,4.76008e-17,564.196,637.903)">
            <path d="M380.345,441.873L380.345,456.495" style="fill:none;stroke:black;stroke-width:0.7px;"/>
        </g>
        <g transform="matrix(0.707107,-0.707107,0.54969,0.54969,401.736,266.115)">
            <path d="M380.345,441.873L380.345,456.495" style="fill:none;stroke:black;stroke-width:0.7px;"/>
        </g>
        <g transform="matrix(0.707107,-0.707107,0.54969,0.54969,429.855,294.234)">
            <path d="M380.345,441.873L380.345,456.495" style="fill:none;stroke:black;stroke-width:0.7px;"/>
        </g>
        <g transform="matrix(-0.707107,-0.707107,0.54969,-0.54969,940.292,787.148)">
            <path d="M380.345,441.873L380.345,456.495" style="fill:none;stroke:black;stroke-width:0.7px;"/>
        </g>
        <g transform="matrix(-0.707107,-0.707107,0.54969,-0.54969,968.643,758.797)">
            <path d="M380.345,441.873L380.345,456.495" style="fill:none;stroke:black;stroke-width:0.7px;"/>
        </g>
    </g>
</svg>
