<?xml version="1.0" encoding="UTF-8" standalone="no"?>
<!DOCTYPE svg PUBLIC "-//W3C//DTD SVG 1.1//EN" "http://www.w3.org/Graphics/SVG/1.1/DTD/svg11.dtd">
<svg width="100%" height="100%" viewBox="0 0 195 112" version="1.1" xmlns="http://www.w3.org/2000/svg" xmlns:xlink="http://www.w3.org/1999/xlink" xml:space="preserve" xmlns:serif="http://www.serif.com/" style="fill-rule:evenodd;clip-rule:evenodd;stroke-linejoin:round;stroke-miterlimit:2;">
    <g id="g14" transform="matrix(2.46921,-5.55097e-32,-5.55097e-32,-2.46921,-215.761,12.5915)">
        <g>
            <g id="g20" transform="matrix(1,0,0,1,154.926,-7.94058)">
                <path id="path22" d="M0,0C0.943,0 1.709,0.766 1.709,1.709C1.709,2.653 0.943,3.419 0,3.419C-0.944,3.419 -1.71,2.653 -1.71,1.709C-1.71,0.766 -0.945,0 -0.002,0L0,0" style="fill-rule:nonzero;"/>
            </g>
            <g id="g24" transform="matrix(1,0,0,1,147.837,-7.94058)">
                <path id="path26" d="M0,0C0.943,0 1.709,0.766 1.709,1.709C1.709,2.653 0.943,3.419 0,3.419C-0.944,3.419 -1.709,2.653 -1.709,1.709C-1.71,0.766 -0.945,0 -0.002,0L0,0" style="fill-rule:nonzero;"/>
            </g>
            <g id="g28" transform="matrix(1,0,0,1,94.3199,-4.52258)">
                <path id="path30" d="M0,0C-0.943,0 -1.709,-0.765 -1.709,-1.709C-1.709,-2.653 -0.943,-3.418 0,-3.418C0.944,-3.418 1.71,-2.653 1.71,-1.709C1.71,-0.766 0.945,0 0.002,0L0,0" style="fill-rule:nonzero;"/>
            </g>
            <g id="g32" transform="matrix(1,0,0,1,95.439,-11.9064)">
                <path id="path34" d="M0,0L-2.237,0C-2.331,0 -2.407,-0.075 -2.408,-0.169L-2.408,-18.653C-2.408,-18.747 -2.332,-18.823 -2.237,-18.823L0,-18.823C0.094,-18.823 0.17,-18.747 0.17,-18.653L0.17,-0.169C0.17,-0.075 0.094,0 0,0" style="fill-rule:nonzero;"/>
            </g>
            <g id="g36" transform="matrix(1,0,0,1,105.933,-21.1154)">
                <path id="path38" d="M0,0L10.63,8.906C10.702,8.967 10.712,9.075 10.651,9.147C10.619,9.187 10.57,9.209 10.52,9.209L7.494,9.209C7.454,9.21 7.414,9.196 7.383,9.17L-2.346,1.021C-2.419,0.959 -2.527,0.968 -2.589,1.041C-2.615,1.072 -2.63,1.111 -2.629,1.152L-2.629,17.479C-2.629,17.573 -2.704,17.65 -2.799,17.651L-5.035,17.651C-5.13,17.651 -5.207,17.574 -5.207,17.479L-5.207,-9.442C-5.207,-9.537 -5.13,-9.614 -5.035,-9.614L-2.8,-9.614C-2.706,-9.614 -2.629,-9.538 -2.629,-9.443L-2.629,-1.15C-2.63,-1.056 -2.554,-0.978 -2.459,-0.978C-2.418,-0.977 -2.377,-0.992 -2.346,-1.019L7.864,-9.573C7.896,-9.599 7.934,-9.613 7.975,-9.613L10.999,-9.613C11.094,-9.614 11.172,-9.538 11.173,-9.443C11.173,-9.391 11.15,-9.342 11.11,-9.31L0,0Z" style="fill-rule:nonzero;"/>
            </g>
            <g id="g40" transform="matrix(1,0,0,1,138.211,-11.9064)">
                <path id="path42" d="M0,0L-2.234,0C-2.329,0 -2.406,-0.076 -2.406,-0.171L-2.406,-9.409C-2.406,-12.89 -3.487,-16.934 -9.124,-16.934C-14.76,-16.934 -15.84,-12.89 -15.84,-9.409L-15.84,-0.171C-15.84,-0.076 -15.917,0 -16.012,0L-18.247,0C-18.341,0 -18.417,-0.076 -18.418,-0.169L-18.418,-9.409C-18.418,-13.786 -16.85,-19.323 -9.124,-19.323C-1.397,-19.323 0.172,-13.786 0.172,-9.409L0.172,-0.171C0.172,-0.077 0.096,0 0.001,0L0,0" style="fill-rule:nonzero;"/>
            </g>
            <g id="g44" transform="matrix(1,0,0,1,160.504,-11.9064)">
                <path id="path46" d="M0,0L-2.235,0C-2.33,0 -2.407,-0.076 -2.407,-0.171L-2.407,-9.409C-2.407,-12.89 -3.488,-16.934 -9.123,-16.934C-14.759,-16.934 -15.841,-12.89 -15.841,-9.409L-15.841,-0.171C-15.841,-0.077 -15.917,0 -16.012,0L-18.247,0C-18.342,0 -18.418,-0.077 -18.418,-0.171L-18.418,-9.409C-18.418,-13.786 -16.849,-19.323 -9.122,-19.323C-1.396,-19.323 0.172,-13.786 0.172,-9.409L0.172,-0.171C0.172,-0.077 0.096,0 0.001,0L0,0" style="fill-rule:nonzero;"/>
            </g>
        </g>
    </g>
</svg>
