<?xml version="1.0" encoding="UTF-8" standalone="no"?>
<!DOCTYPE svg PUBLIC "-//W3C//DTD SVG 1.1//EN" "http://www.w3.org/Graphics/SVG/1.1/DTD/svg11.dtd">
<svg width="100%" height="100%" viewBox="0 0 560 336" version="1.1" xmlns="http://www.w3.org/2000/svg" xmlns:xlink="http://www.w3.org/1999/xlink" xml:space="preserve" xmlns:serif="http://www.serif.com/" style="fill-rule:evenodd;clip-rule:evenodd;stroke-linecap:round;stroke-linejoin:round;stroke-miterlimit:1.5;">
    <g transform="matrix(1,0,0,1,-275.368,-297.022)">
        <g transform="matrix(0.985925,0,0,1,3.91983,0)">
            <path d="M839.202,339.245L839.202,590.385C839.202,611.964 821.433,629.483 799.546,629.483L318.149,629.483C296.262,629.483 278.493,611.964 278.493,590.385L278.493,339.245C278.493,317.666 296.262,300.147 318.149,300.147L799.546,300.147C821.433,300.147 839.202,317.666 839.202,339.245Z" style="fill:none;stroke:black;stroke-width:6.29px;"/>
        </g>
        <g transform="matrix(-0.5,-0.866025,1.16759,-0.674107,233.078,1098.17)">
            <path d="M380.345,441.873L380.345,456.495" style="fill:none;stroke:black;stroke-width:2.63px;"/>
        </g>
        <g transform="matrix(0.5,-0.866025,1.16759,0.674107,-178.022,492.866)">
            <path d="M380.345,441.873L380.345,456.495" style="fill:none;stroke:black;stroke-width:2.63px;"/>
        </g>
        <g transform="matrix(1,-2.83107e-15,7.77156e-16,1.34821,171.552,-114.529)">
            <path d="M380.345,441.873L380.345,456.495" style="fill:none;stroke:black;stroke-width:2.63px;"/>
        </g>
        <g transform="matrix(0.131373,0,0,0.224304,307.915,368.735)">
            <path d="M839.202,398.321L839.202,531.308C839.202,585.492 764.093,629.483 671.581,629.483L446.114,629.483C353.601,629.483 278.493,585.492 278.493,531.308L278.493,398.321C278.493,344.137 353.601,300.147 446.114,300.147L671.581,300.147C764.093,300.147 839.202,344.137 839.202,398.321Z" style="fill:none;stroke:black;stroke-width:34px;"/>
        </g>
        <g transform="matrix(0.131373,0,0,0.224304,478.325,368.735)">
            <path d="M839.202,398.321L839.202,531.308C839.202,585.492 764.093,629.483 671.581,629.483L446.114,629.483C353.601,629.483 278.493,585.492 278.493,531.308L278.493,398.321C278.493,344.137 353.601,300.147 446.114,300.147L671.581,300.147C764.093,300.147 839.202,344.137 839.202,398.321Z" style="fill:none;stroke:black;stroke-width:34px;"/>
        </g>
        <g transform="matrix(0.131373,0,0,0.224304,655.659,368.735)">
            <path d="M839.202,398.321L839.202,531.308C839.202,585.492 764.093,629.483 671.581,629.483L446.114,629.483C353.601,629.483 278.493,585.492 278.493,531.308L278.493,398.321C278.493,344.137 353.601,300.147 446.114,300.147L671.581,300.147C764.093,300.147 839.202,344.137 839.202,398.321Z" style="fill:none;stroke:black;stroke-width:34px;"/>
        </g>
        <g transform="matrix(0.485357,0,0,0.485357,287.04,176.055)">
            <path d="M552.158,344.273L580.802,377.494L523.515,377.494L552.158,344.273Z" style="fill:rgb(231,232,233);stroke:black;stroke-width:4.72px;"/>
        </g>
        <g transform="matrix(1,0,0,1.06465,-3.53109,-32.7304)">
            <ellipse cx="384.123" cy="474.788" rx="11.855" ry="11.094" style="fill:none;stroke:black;stroke-width:0.61px;"/>
        </g>
        <g transform="matrix(0.478765,0,0,0.509716,368.111,231.903)">
            <ellipse cx="384.123" cy="474.788" rx="11.855" ry="11.094" style="fill:none;stroke:black;stroke-width:1.26px;"/>
        </g>
        <g transform="matrix(-0.5,-0.866025,1.16759,-0.674107,409.696,1096.64)">
            <path d="M380.345,441.873L380.345,456.495" style="fill:none;stroke:black;stroke-width:2.63px;"/>
        </g>
        <g transform="matrix(0.5,-0.866025,1.16759,0.674107,-1.40367,491.339)">
            <path d="M380.345,441.873L380.345,456.495" style="fill:none;stroke:black;stroke-width:2.63px;"/>
        </g>
        <g transform="matrix(1,-2.83107e-15,7.77156e-16,1.34821,348.17,-116.056)">
            <path d="M380.345,441.873L380.345,456.495" style="fill:none;stroke:black;stroke-width:2.63px;"/>
        </g>
        <g transform="matrix(0.478765,0,0,0.509716,544.729,230.376)">
            <ellipse cx="384.123" cy="474.788" rx="11.855" ry="11.094" style="fill:none;stroke:black;stroke-width:1.26px;"/>
        </g>
        <g transform="matrix(1,0,0,0.777379,0.128911,103.058)">
            <path d="M380.345,441.873L380.345,456.495" style="fill:none;stroke:black;stroke-width:0.7px;"/>
        </g>
        <g transform="matrix(1,0,0,0.777379,-0.065145,143.547)">
            <path d="M380.345,441.873L380.345,456.495" style="fill:none;stroke:black;stroke-width:0.7px;"/>
        </g>
        <g transform="matrix(6.12323e-17,-1,0.777379,4.76008e-17,51.4232,853.269)">
            <path d="M380.345,441.873L380.345,456.495" style="fill:none;stroke:black;stroke-width:0.7px;"/>
        </g>
        <g transform="matrix(6.12323e-17,-1,0.777379,4.76008e-17,11.8264,853.269)">
            <path d="M380.345,441.873L380.345,456.495" style="fill:none;stroke:black;stroke-width:0.7px;"/>
        </g>
        <g transform="matrix(0.707107,-0.707107,0.54969,0.54969,-150.633,481.481)">
            <path d="M380.345,441.873L380.345,456.495" style="fill:none;stroke:black;stroke-width:0.7px;"/>
        </g>
        <g transform="matrix(0.707107,-0.707107,0.54969,0.54969,-122.515,509.6)">
            <path d="M380.345,441.873L380.345,456.495" style="fill:none;stroke:black;stroke-width:0.7px;"/>
        </g>
        <g transform="matrix(-0.707107,-0.707107,0.54969,-0.54969,387.923,1002.51)">
            <path d="M380.345,441.873L380.345,456.495" style="fill:none;stroke:black;stroke-width:0.7px;"/>
        </g>
        <g transform="matrix(-0.707107,-0.707107,0.54969,-0.54969,416.273,974.163)">
            <path d="M380.345,441.873L380.345,456.495" style="fill:none;stroke:black;stroke-width:0.7px;"/>
        </g>
        <g transform="matrix(1.17213,0,0,1.24507,-137.886,-122.1)">
            <path d="M719.932,482.772C719.473,481.077 719.241,479.329 719.241,477.573C719.241,474.543 719.933,471.553 721.264,468.832" style="fill:none;stroke:black;stroke-width:0.86px;"/>
        </g>
        <g transform="matrix(-0.749388,0.901282,0.957363,0.796018,826.102,-572.553)">
            <path d="M719.932,482.772C719.473,481.077 719.241,479.329 719.241,477.573C719.241,474.543 719.933,471.553 721.264,468.832" style="fill:none;stroke:black;stroke-width:0.86px;"/>
        </g>
        <g transform="matrix(-0.722017,-0.923353,0.980808,-0.766944,791.196,1520.95)">
            <path d="M719.932,482.772C719.473,481.077 719.241,479.329 719.241,477.573C719.241,474.543 719.933,471.553 721.264,468.832" style="fill:none;stroke:black;stroke-width:0.86px;"/>
        </g>
    </g>
</svg>
