<?xml version="1.0" encoding="UTF-8" standalone="no"?>
<!DOCTYPE svg PUBLIC "-//W3C//DTD SVG 1.1//EN" "http://www.w3.org/Graphics/SVG/1.1/DTD/svg11.dtd">
<svg width="100%" height="100%" viewBox="0 0 577 353" version="1.1" xmlns="http://www.w3.org/2000/svg" xmlns:xlink="http://www.w3.org/1999/xlink" xml:space="preserve" xmlns:serif="http://www.serif.com/" style="fill-rule:evenodd;clip-rule:evenodd;stroke-linecap:round;stroke-linejoin:round;stroke-miterlimit:1.5;">
    <g transform="matrix(1,0,0,1,-27.0129,-63.4608)">
        <g transform="matrix(0.985925,0,0,1,-227.435,-216.561)">
            <path d="M839.202,339.245L839.202,590.385C839.202,611.964 821.433,629.483 799.546,629.483L318.149,629.483C296.262,629.483 278.493,611.964 278.493,590.385L278.493,339.245C278.493,317.666 296.262,300.147 318.149,300.147L799.546,300.147C821.433,300.147 839.202,317.666 839.202,339.245Z" style="fill:none;stroke:black;stroke-width:6.29px;"/>
        </g>
        <g transform="matrix(0.985925,0,0,1,-244.435,-233.561)">
            <path d="M332.892,646.406C311.005,646.406 278.493,611.964 278.493,590.385L278.493,339.245C278.493,317.666 296.262,300.147 318.149,300.147L799.546,300.147C821.433,300.147 856.27,329.859 856.27,351.438" style="fill:none;stroke:black;stroke-width:6.29px;"/>
        </g>
        <g transform="matrix(-0.5,-0.866025,1.16759,-0.674107,1.72347,881.61)">
            <path d="M380.345,441.873L380.345,456.495" style="fill:none;stroke:black;stroke-width:2.63px;"/>
        </g>
        <g transform="matrix(0.5,-0.866025,1.16759,0.674107,-409.376,276.305)">
            <path d="M380.345,441.873L380.345,456.495" style="fill:none;stroke:black;stroke-width:2.63px;"/>
        </g>
        <g transform="matrix(1,-2.83107e-15,7.77156e-16,1.34821,-59.803,-331.09)">
            <path d="M380.345,441.873L380.345,456.495" style="fill:none;stroke:black;stroke-width:2.63px;"/>
        </g>
        <g transform="matrix(0.131373,0,0,0.224304,76.5599,152.175)">
            <path d="M839.202,398.321L839.202,531.308C839.202,585.492 764.093,629.483 671.581,629.483L446.114,629.483C353.601,629.483 278.493,585.492 278.493,531.308L278.493,398.321C278.493,344.137 353.601,300.147 446.114,300.147L671.581,300.147C764.093,300.147 839.202,344.137 839.202,398.321Z" style="fill:none;stroke:black;stroke-width:34px;"/>
        </g>
        <g transform="matrix(0.131373,0,0,0.224304,246.97,152.175)">
            <path d="M839.202,398.321L839.202,531.308C839.202,585.492 764.093,629.483 671.581,629.483L446.114,629.483C353.601,629.483 278.493,585.492 278.493,531.308L278.493,398.321C278.493,344.137 353.601,300.147 446.114,300.147L671.581,300.147C764.093,300.147 839.202,344.137 839.202,398.321Z" style="fill:none;stroke:black;stroke-width:34px;"/>
        </g>
        <g transform="matrix(0.131373,0,0,0.224304,424.304,152.175)">
            <path d="M839.202,398.321L839.202,531.308C839.202,585.492 764.093,629.483 671.581,629.483L446.114,629.483C353.601,629.483 278.493,585.492 278.493,531.308L278.493,398.321C278.493,344.137 353.601,300.147 446.114,300.147L671.581,300.147C764.093,300.147 839.202,344.137 839.202,398.321Z" style="fill:none;stroke:black;stroke-width:34px;"/>
        </g>
        <g transform="matrix(0.485357,0,0,0.485357,55.6856,-40.5053)">
            <path d="M552.158,344.273L580.802,377.494L523.515,377.494L552.158,344.273Z" style="fill:rgb(231,232,233);stroke:black;stroke-width:4.72px;"/>
        </g>
        <g transform="matrix(1,0,0,1.06465,-234.886,-249.291)">
            <ellipse cx="384.123" cy="474.788" rx="11.855" ry="11.094" style="fill:none;stroke:black;stroke-width:0.61px;"/>
        </g>
        <g transform="matrix(0.478765,0,0,0.509716,136.756,15.3421)">
            <ellipse cx="384.123" cy="474.788" rx="11.855" ry="11.094" style="fill:none;stroke:black;stroke-width:1.26px;"/>
        </g>
        <g transform="matrix(-0.5,-0.866025,1.16759,-0.674107,178.342,880.083)">
            <path d="M380.345,441.873L380.345,456.495" style="fill:none;stroke:black;stroke-width:2.63px;"/>
        </g>
        <g transform="matrix(0.5,-0.866025,1.16759,0.674107,-232.758,274.778)">
            <path d="M380.345,441.873L380.345,456.495" style="fill:none;stroke:black;stroke-width:2.63px;"/>
        </g>
        <g transform="matrix(1,-2.83107e-15,7.77156e-16,1.34821,116.815,-332.617)">
            <path d="M380.345,441.873L380.345,456.495" style="fill:none;stroke:black;stroke-width:2.63px;"/>
        </g>
        <g transform="matrix(0.478765,0,0,0.509716,313.374,13.8151)">
            <ellipse cx="384.123" cy="474.788" rx="11.855" ry="11.094" style="fill:none;stroke:black;stroke-width:1.26px;"/>
        </g>
        <g transform="matrix(1,0,0,0.777379,-231.226,-113.503)">
            <path d="M380.345,441.873L380.345,456.495" style="fill:none;stroke:black;stroke-width:0.7px;"/>
        </g>
        <g transform="matrix(1,0,0,0.777379,-231.42,-73.0138)">
            <path d="M380.345,441.873L380.345,456.495" style="fill:none;stroke:black;stroke-width:0.7px;"/>
        </g>
        <g transform="matrix(6.12323e-17,-1,0.777379,4.76008e-17,-179.931,636.708)">
            <path d="M380.345,441.873L380.345,456.495" style="fill:none;stroke:black;stroke-width:0.7px;"/>
        </g>
        <g transform="matrix(6.12323e-17,-1,0.777379,4.76008e-17,-219.528,636.708)">
            <path d="M380.345,441.873L380.345,456.495" style="fill:none;stroke:black;stroke-width:0.7px;"/>
        </g>
        <g transform="matrix(0.707107,-0.707107,0.54969,0.54969,-381.988,264.92)">
            <path d="M380.345,441.873L380.345,456.495" style="fill:none;stroke:black;stroke-width:0.7px;"/>
        </g>
        <g transform="matrix(0.707107,-0.707107,0.54969,0.54969,-353.869,293.039)">
            <path d="M380.345,441.873L380.345,456.495" style="fill:none;stroke:black;stroke-width:0.7px;"/>
        </g>
        <g transform="matrix(-0.707107,-0.707107,0.54969,-0.54969,156.568,785.953)">
            <path d="M380.345,441.873L380.345,456.495" style="fill:none;stroke:black;stroke-width:0.7px;"/>
        </g>
        <g transform="matrix(-0.707107,-0.707107,0.54969,-0.54969,184.918,757.602)">
            <path d="M380.345,441.873L380.345,456.495" style="fill:none;stroke:black;stroke-width:0.7px;"/>
        </g>
        <g transform="matrix(1.17213,0,0,1.24507,-369.24,-338.66)">
            <path d="M719.932,482.772C719.473,481.077 719.241,479.329 719.241,477.573C719.241,474.543 719.933,471.553 721.264,468.832" style="fill:none;stroke:black;stroke-width:0.86px;"/>
        </g>
        <g transform="matrix(-0.749388,0.901282,0.957363,0.796018,594.747,-789.114)">
            <path d="M719.932,482.772C719.473,481.077 719.241,479.329 719.241,477.573C719.241,474.543 719.933,471.553 721.264,468.832" style="fill:none;stroke:black;stroke-width:0.86px;"/>
        </g>
        <g transform="matrix(-0.722017,-0.923353,0.980808,-0.766944,559.841,1304.39)">
            <path d="M719.932,482.772C719.473,481.077 719.241,479.329 719.241,477.573C719.241,474.543 719.933,471.553 721.264,468.832" style="fill:none;stroke:black;stroke-width:0.86px;"/>
        </g>
    </g>
</svg>
