<?xml version="1.0" encoding="UTF-8" standalone="no"?>
<!DOCTYPE svg PUBLIC "-//W3C//DTD SVG 1.1//EN" "http://www.w3.org/Graphics/SVG/1.1/DTD/svg11.dtd">
<svg width="100%" height="100%" viewBox="0 0 577 353" version="1.1" xmlns="http://www.w3.org/2000/svg" xmlns:xlink="http://www.w3.org/1999/xlink" xml:space="preserve" xmlns:serif="http://www.serif.com/" style="fill-rule:evenodd;clip-rule:evenodd;stroke-linecap:round;stroke-linejoin:round;stroke-miterlimit:1.5;">
    <g transform="matrix(1,0,0,1,-26.7064,-864.557)">
        <g transform="matrix(0.985925,0,0,1,-227.741,584.535)">
            <path d="M839.202,339.245L839.202,590.385C839.202,611.964 821.433,629.483 799.546,629.483L318.149,629.483C296.262,629.483 278.493,611.964 278.493,590.385L278.493,339.245C278.493,317.666 296.262,300.147 318.149,300.147L799.546,300.147C821.433,300.147 839.202,317.666 839.202,339.245Z" style="fill:none;stroke:black;stroke-width:6.29px;"/>
        </g>
        <g transform="matrix(0.985925,0,0,1,-244.741,567.535)">
            <path d="M332.892,646.406C311.005,646.406 278.493,611.964 278.493,590.385L278.493,339.245C278.493,317.666 296.262,300.147 318.149,300.147L799.546,300.147C821.433,300.147 856.27,329.859 856.27,351.438" style="fill:none;stroke:black;stroke-width:6.29px;"/>
        </g>
        <g transform="matrix(0.131373,0,0,0.224304,383.714,840.627)">
            <path d="M839.202,398.321L839.202,531.308C839.202,585.492 764.093,629.483 671.581,629.483L446.114,629.483C353.601,629.483 278.493,585.492 278.493,531.308L278.493,398.321C278.493,344.137 353.601,300.147 446.114,300.147L671.581,300.147C764.093,300.147 839.202,344.137 839.202,398.321Z" style="fill:none;stroke:black;stroke-width:34px;"/>
        </g>
        <g transform="matrix(0.0839609,0,0,0.143354,410.206,878.26)">
            <path d="M839.202,398.321L839.202,531.308C839.202,585.492 764.093,629.483 671.581,629.483L446.114,629.483C353.601,629.483 278.493,585.492 278.493,531.308L278.493,398.321C278.493,344.137 353.601,300.147 446.114,300.147L671.581,300.147C764.093,300.147 839.202,344.137 839.202,398.321Z" style="fill:none;stroke:black;stroke-width:3.55px;"/>
        </g>
        <g transform="matrix(0.131373,0,0,0.224304,117.244,840.627)">
            <path d="M839.202,398.321L839.202,531.308C839.202,585.492 764.093,629.483 671.581,629.483L446.114,629.483C353.601,629.483 278.493,585.492 278.493,531.308L278.493,398.321C278.493,344.137 353.601,300.147 446.114,300.147L671.581,300.147C764.093,300.147 839.202,344.137 839.202,398.321Z" style="fill:none;stroke:black;stroke-width:34px;"/>
        </g>
        <g transform="matrix(0.0839609,0,0,0.143354,143.736,878.26)">
            <path d="M839.202,398.321L839.202,531.308C839.202,585.492 764.093,629.483 671.581,629.483L446.114,629.483C353.601,629.483 278.493,585.492 278.493,531.308L278.493,398.321C278.493,344.137 353.601,300.147 446.114,300.147L671.581,300.147C764.093,300.147 839.202,344.137 839.202,398.321Z" style="fill:none;stroke:black;stroke-width:3.55px;"/>
        </g>
        <g transform="matrix(0.256774,0,0,0.443853,45.7888,912.82)">
            <path d="M839.202,397.118L839.202,532.512C839.202,586.031 764.093,629.483 671.581,629.483L446.114,629.483C353.601,629.483 278.493,586.031 278.493,532.512L278.493,397.118C278.493,343.598 353.601,300.147 446.114,300.147L671.581,300.147C764.093,300.147 839.202,343.598 839.202,397.118Z" style="fill:none;stroke:black;stroke-width:1.15px;"/>
        </g>
        <g transform="matrix(0.485357,0,0,0.485357,55.379,760.591)">
            <path d="M552.158,344.273L580.802,377.494L523.515,377.494L552.158,344.273Z" style="fill:rgb(231,232,233);stroke:black;stroke-width:4.72px;"/>
        </g>
        <g transform="matrix(0.726184,0,0,1,98.7852,-23.4658)">
            <rect x="266.798" y="989.002" width="29.535" height="56.772" style="fill:none;stroke:black;stroke-width:4.05px;"/>
        </g>
        <g transform="matrix(0.726184,0,0,1,98.7852,-23.4658)">
            <rect x="266.798" y="989.002" width="29.535" height="56.772" style="fill:none;stroke:black;stroke-width:4.05px;"/>
        </g>
        <g transform="matrix(0.257843,0,0,0.784181,223.738,196.278)">
            <rect x="266.798" y="989.002" width="29.535" height="56.772" style="fill:none;stroke:black;stroke-width:6.07px;"/>
        </g>
        <g transform="matrix(0.726184,0,0,1,140.162,-23.4658)">
            <rect x="266.798" y="989.002" width="29.535" height="56.772" style="fill:none;stroke:black;stroke-width:4.05px;"/>
        </g>
        <g transform="matrix(0.257843,0,0,0.784181,265.261,196.387)">
            <rect x="266.798" y="989.002" width="29.535" height="56.772" style="fill:none;stroke:black;stroke-width:6.07px;"/>
        </g>
        <g transform="matrix(1,0,0,0.513508,31.8816,594.173)">
            <path d="M158.739,1060.83L158.739,1126.29" style="fill:none;stroke:black;stroke-width:10.48px;stroke-linecap:square;"/>
        </g>
        <g transform="matrix(0.707107,-0.707107,0.363105,0.363105,-285.612,808.811)">
            <path d="M158.739,1060.83L158.739,1126.29" style="fill:none;stroke:black;stroke-width:10.48px;stroke-linecap:square;"/>
        </g>
        <g transform="matrix(-0.707107,-0.707107,-0.363105,0.363105,663.781,808.811)">
            <path d="M158.739,1060.83L158.739,1126.29" style="fill:none;stroke:black;stroke-width:10.48px;stroke-linecap:square;"/>
        </g>
        <g transform="matrix(0.256774,0,0,0.443853,313.706,912.82)">
            <path d="M839.202,397.118L839.202,532.512C839.202,586.031 764.093,629.483 671.581,629.483L446.114,629.483C353.601,629.483 278.493,586.031 278.493,532.512L278.493,397.118C278.493,343.598 353.601,300.147 446.114,300.147L671.581,300.147C764.093,300.147 839.202,343.598 839.202,397.118Z" style="fill:none;stroke:black;stroke-width:1.15px;"/>
        </g>
        <g transform="matrix(1,0,0,0.513508,299.798,594.173)">
            <path d="M158.739,1060.83L158.739,1126.29" style="fill:none;stroke:black;stroke-width:10.48px;stroke-linecap:square;"/>
        </g>
        <g transform="matrix(0.707107,-0.707107,0.363105,0.363105,-17.6957,808.811)">
            <path d="M158.739,1060.83L158.739,1126.29" style="fill:none;stroke:black;stroke-width:10.48px;stroke-linecap:square;"/>
        </g>
        <g transform="matrix(-0.707107,-0.707107,-0.363105,0.363105,931.698,808.811)">
            <path d="M158.739,1060.83L158.739,1126.29" style="fill:none;stroke:black;stroke-width:10.48px;stroke-linecap:square;"/>
        </g>
    </g>
</svg>
